<?xml version="1.0" encoding="UTF-8"?>
<svg xmlns="http://www.w3.org/2000/svg" xmlns:xlink="http://www.w3.org/1999/xlink" width="36px" height="36px" viewBox="0 0 36 36">
  <!-- Generator: Sketch 52.3 (67297) - http://www.bohemiancoding.com/sketch -->
  <title>enterprise</title>
  <desc>Created with Sketch.</desc>
  <g id="enterprise" stroke="none" stroke-width="1" fill="none" fill-rule="evenodd">
    <g id="enerprise" transform="translate(1.000000, 0.000000)">
      <path d="M7,16 L17,16 L17,35 L2,35 L2,21 C2,18.2385763 4.23857625,16 7,16 Z" id="Rectangle" fill="#E2DDE5"></path>
      <polygon id="Rectangle-2" fill="#FFFFFF" transform="translate(24.500000, 19.000000) rotate(-180.000000) translate(-24.500000, -19.000000) " points="18 3 31 3 31 35 18 35"></polygon>
      <path d="M21,34 L21,28 C21,26.3431458 22.3431458,25 24,25 C25.6568542,25 27,26.3431458 27,28 L27,30" id="Path" stroke="#442358" stroke-width="2" stroke-linecap="round"></path>
      <path d="M0,35 L27,35" id="Line-8" stroke="#442358" stroke-width="2" stroke-linecap="round"></path>
      <circle id="Oval-2" fill="#8247B5" cx="30.9990234" cy="2.99902344" r="2.99902344"></circle>
      <path d="M31,9.92504883 L31,35 M17,35 L17,3.86421605 C17,3.38692271 17.3579799,3 17.7995705,3 L24,3" id="Shape" stroke="#442358" stroke-width="2" stroke-linecap="round"></path>
      <path d="M2,35 L2,20 C2,17.790861 3.790861,16 6,16 L10,16" id="Path" stroke="#442358" stroke-width="2" stroke-linecap="round"></path>
    </g>
  </g>
</svg>
