<?xml version="1.0" encoding="UTF-8"?>
<svg xmlns="http://www.w3.org/2000/svg" xmlns:xlink="http://www.w3.org/1999/xlink" width="36px" height="36px" viewBox="0 0 36 36">
  <!-- Generator: Sketch 52.3 (67297) - http://www.bohemiancoding.com/sketch -->
  <title>Instore</title>
  <desc>Created with Sketch.</desc>
  <g id="Instore" stroke="none" stroke-width="1" fill="none" fill-rule="evenodd">
    <g id="instore" transform="translate(2.311035, 1.000000)">
      <polygon id="Shape" fill="#FFFFFF" points="16.2597656 24 3.68896484 24 3.68896484 -1.81753553e-27 20.6889648 -1.62003744e-12 20.6889648 19.9907227 15.1627197 14.4613037 11.2012939 14.4613037 11.2012939 18.4799194 16.2597656 23.5"></polygon>
      <path d="M13.6464844,-1.71773706e-12 L19.1889648,-1.71773706e-12 C20.017392,-1.71788924e-12 20.6889648,0.671572875 20.6889648,1.5 L20.6889648,19.4667969 L13.6464844,14.0471191 L13.6464844,-1.71773706e-12 Z" id="Rectangle-2" fill="#E2DDE5"></path>
      <path d="M27.6889648,27 C27.6889648,23.4434314 27.6889648,20.9275113 27.6889648,19.4522396 C27.6889648,16.9111052 26.8955029,15.4810761 24.6889648,14" id="Line" stroke="#442358" stroke-width="2" stroke-linecap="round" stroke-linejoin="bevel"></path>
      <path d="M8.79521979,24 C8.57387673,25.6454679 8.69834875,26.8528787 9.16863584,27.6222324 C9.67634864,28.4446945 11.6889648,32.779346 11.6889648,33.9572754" id="Path-3" stroke="#442358" stroke-width="2" stroke-linecap="round"></path>
      <path d="M10.6889648,24 C9.25477616,24 8.40442351,24 5.53604614,24 C4.51593131,24 3.68896484,23.1508376 3.68896484,22.1033427 C3.68896484,18.0775574 3.68896484,16.0128926 3.68896484,14 M3.68896484,1.73152161 C3.68896484,0.73036421 4.53464921,0 5.57785373,0 L18.800076,0 C19.8432805,-2.01256325e-16 20.6889648,0.811598427 20.6889648,1.81275582 L20.6889648,14" id="Shape" stroke="#442358" stroke-width="2" stroke-linecap="round"></path>
      <circle id="Oval-2" fill="#8247B5" cx="3.68896484" cy="8" r="3"></circle>
      <path d="M19.1855655,31 C16.4677797,28.3026069 15.4503297,25.5906667 16.1332155,22.8641795 C14.0616541,20.8919052 9.08999044,16.8167104 11.200246,14.7394853 C12.6070831,13.3546686 14.5770703,13.9148371 17.1102076,16.4199909 L22.6889648,21.7175209" id="Path-2" stroke="#442358" stroke-width="2" stroke-linecap="round"></path>
    </g>
  </g>
</svg>
