<?xml version="1.0" encoding="UTF-8"?>
<svg xmlns="http://www.w3.org/2000/svg" xmlns:xlink="http://www.w3.org/1999/xlink" width="36px" height="36px" viewBox="0 0 36 36">
  <!-- Generator: Sketch 52.4 (67378) - http://www.bohemiancoding.com/sketch -->
  <title>Online</title>
  <desc>Created with Sketch.</desc>
  <g id="Online" stroke="none" stroke-width="1" fill="none" fill-rule="evenodd">
    <rect id="Rectangle" fill="#E2DDE5" x="13" y="23" width="10" height="7"></rect>
    <rect id="Rectangle" fill="#442358" x="6" y="34" width="24" height="2" rx="1"></rect>
    <rect id="Rectangle" fill="#442358" transform="translate(12.518840, 29.054374) rotate(-345.000000) translate(-12.518840, -29.054374) " x="11.5188401" y="23.054374" width="2" height="12"></rect>
    <rect id="Rectangle" fill="#442358" transform="translate(23.001202, 27.122522) scale(-1, 1) rotate(-345.000000) translate(-23.001202, -27.122522) " x="22.001202" y="23.1225224" width="2" height="8"></rect>
    <path d="M2,8 L2,4 C2,2.34314575 3.34314575,1 5,1 L31,1 C32.6568542,1 34,2.34314575 34,4 L34,20 C34,21.6568542 32.6568542,23 31,23 L5,23 C3.34314575,23 2,21.6568542 2,20" id="Path" stroke="#442358" stroke-width="2" fill="#FFFFFF" stroke-linecap="round"></path>
    <circle id="Oval-2" fill="#8247B5" cx="28" cy="7" r="3"></circle>
    <path d="M1,13 C2.34643555,16.3333333 4.68286133,18 8.00927734,18 C12.9989014,18 12.9973145,11 18,11 C21.0131836,11 22.6142578,12.65979 24.0001221,16" id="Line-5" stroke="#442358" stroke-width="2" stroke-linecap="round" transform="translate(12.500061, 14.500000) scale(1, -1) translate(-12.500061, -14.500000) "></path>
  </g>
</svg>
