<?xml version="1.0" encoding="UTF-8"?>
<svg xmlns="http://www.w3.org/2000/svg" xmlns:xlink="http://www.w3.org/1999/xlink" width="36px" height="36px" viewBox="0 0 36 36">
  <!-- Generator: Sketch 52.5 (67469) - http://www.bohemiancoding.com/sketch -->
  <title>Restaurants, coffea shops &amp; bars@2x</title>
  <desc>Created with Sketch.</desc>
  <g id="Restaurants,-coffea-shops-&amp;-bars" stroke="none" stroke-width="1" fill="none" fill-rule="evenodd">
    <g id="Restaurants" transform="translate(4.000000, 1.000000)">
      <path d="M6,34 L22,34" id="Line-2" stroke="#442358" stroke-width="2" stroke-linecap="round"></path>
      <path d="M14,34 L14,22" id="Line-2" stroke="#442358" stroke-width="2" stroke-linecap="round"></path>
      <path d="M12,8 C4.62658273,8 1.26900896,8 0,8 C0,15 10.1000977,22 14,22 C17.8999023,22 28,15 28,8 C27.5915872,8 25.6406434,8 24.5,8" id="Oval-3" stroke="#442358" stroke-width="2" fill="#FFFFFF" stroke-linecap="round" stroke-linejoin="round"></path>
      <path d="M2,14 L25.2366943,14 L17.1296933,21 C15.6129714,21.6666667 14.4425227,22 13.6183472,22 C12.7941716,22 11.5727254,21.6666667 9.95400842,21 L2,14 Z" id="Rectangle-7" fill="#E2DDE5"></path>
      <path d="M0,8 C0,15 10.1000977,22 14,22 C17.8999023,22 28,15 28,8 C27.5915872,8 26.1406434,8 25,8" id="Oval-3" stroke="#442358" stroke-width="2" stroke-linecap="round" stroke-linejoin="round"></path>
      <path d="M8,14 L20,14" id="Line-3" stroke="#442358" stroke-width="2" stroke-linecap="round"></path>
      <polyline id="Line-4" stroke="#442358" stroke-width="2" stroke-linecap="round" points="6.24500451e-17 0 5.02398604 0 9 8"></polyline>
      <circle id="Oval-2" fill="#8247B5" cx="17.9990234" cy="7.99902344" r="2.99902344"></circle>
    </g>
  </g>
</svg>
