<?xml version="1.0" encoding="UTF-8"?>
<svg xmlns="http://www.w3.org/2000/svg" xmlns:xlink="http://www.w3.org/1999/xlink" width="36px" height="36px" viewBox="0 0 36 36">
  <!-- Generator: Sketch 52.3 (67297) - http://www.bohemiancoding.com/sketch -->
  <title>Retail &amp; Ecommerce</title>
  <desc>Created with Sketch.</desc>
  <g id="Retail-&amp;-Ecommerce" stroke="none" stroke-width="1" fill="none" fill-rule="evenodd">
    <g id="Group" transform="translate(17.405592, 13.790368) rotate(-45.000000) translate(-17.405592, -13.790368) translate(5.405592, -6.209632)">
      <path d="M-0.212189891,16.9382492 C0.16972541,16.6325495 1.49563318,15.8537422 3.76553341,14.6018272 C9.74136234,14.6018272 15.2414833,14.2148711 21.2173122,14.2148711 C23.2696294,14.2148711 24.9333612,15.751651 24.9333612,17.647365 L25.1319151,28.9912892 C25.1319151,30.8870032 23.4681833,32.4237831 21.4158661,32.4237831 C15.4400372,32.4237831 9.04522907,32.614366 3.06940015,32.614366 C2.12732119,30.4557539 -4.5363999,29.4286633 -4.81227154,24.5510119 C-4.87845468,23.3808363 -3.9671915,22.0726153 -3.29542405,21.2140152" id="Rectangle-5" fill="#FFFFFF" transform="translate(10.158117, 23.414619) rotate(-270.000000) translate(-10.158117, -23.414619) "></path>
      <path d="M5.93271889,25.6230195 L10.282737,25.6544866 C11.9310797,25.6664104 13.2610362,27.0060223 13.2610362,28.6544081 L13.2610362,41.676031 C13.2610362,43.3328853 11.9178905,44.676031 10.2610362,44.676031 L6.26103622,44.676031 L5.93271889,25.6230195 Z" id="Rectangle-6" fill="#E2DDE5" transform="translate(9.596878, 35.149525) rotate(-270.000000) translate(-9.596878, -35.149525) "></path>
      <path d="M-1.40000253,16.4821574 C-0.629481716,15.5772126 -0.313599524,15.1659115 1.54227638,14.9155948 M14.7176645,14.3239798 C17.5050918,14.2707674 18.9977054,14.3678702 21.1016325,14.3678702 C23.2221897,14.3678702 24.9412411,15.8359425 24.9412411,17.6469015 L25.2815045,30.1942693 C25.2815045,32.0052283 23.5624532,33.4733006 21.4418959,33.4733006 C15.2673691,33.4733006 8.65993186,33.6553628 2.48540503,33.6553628 C0.704054462,32.5861 -5.50839745,28.9014722 -5.7934419,24.2418947" id="Shape" stroke="#442358" stroke-width="2" stroke-linecap="round" stroke-linejoin="round" transform="translate(9.744031, 23.981703) rotate(-270.000000) translate(-9.744031, -23.981703) "></path>
      <circle id="Oval-2" fill="#8247B5" transform="translate(19.343146, 21.982756) rotate(-315.000000) translate(-19.343146, -21.982756) " cx="19.3431458" cy="21.9827561" r="3"></circle>
      <path d="M6.85786438,10.612442 C7.69380188,11.0175527 8.8001978,11.2888743 10.1770521,11.4264069 C12.7401863,11.4033063 14.8357798,9.14604339 14.8576912,6.38466898 C14.8796026,3.62329457 12.8195344,1.403485 10.2564002,1.42658554 C9.38102809,1.43447494 8.56018928,1.70295419 7.85786438,2.16310682" id="Oval" stroke="#442358" stroke-width="2" stroke-linecap="round" transform="translate(10.857864, 6.426407) rotate(-45.000000) translate(-10.857864, -6.426407) "></path>
    </g>
  </g>
</svg>
