<?xml version="1.0" encoding="UTF-8"?>
<svg xmlns="http://www.w3.org/2000/svg" xmlns:xlink="http://www.w3.org/1999/xlink" width="36px" height="36px" viewBox="0 0 36 36">
  <!-- Generator: Sketch 52.5 (67469) - http://www.bohemiancoding.com/sketch -->
  <title>Tjänstehandel@2x</title>
  <desc>Created with Sketch.</desc>
  <g id="Tjänstehandel" stroke="none" stroke-width="1" fill="none" fill-rule="evenodd">
    <g id="Tjänstehandel-2" transform="translate(5.000000, 0.000000)">
      <path d="M2,12 C1.44771525,12 1,12.4477153 1,13 L1,25.6152356 C1,27.4854719 2.04374959,29.1993486 3.70541562,30.0576316 L10.7298418,33.685885 C12.1722844,34.4309348 13.8866697,34.4292653 15.3276585,33.6814076 L22.3032323,30.0611594 C23.960116,29.2012544 25,27.489976 25,25.6232408 L25,13 C25,12.4477153 24.5522847,12 24,12 L2,12 Z" id="Rectangle" stroke="#442358" stroke-width="2" fill="#FFFFFF"></path>
      <rect id="Rectangle" fill="#E2DDE5" x="2" y="13" width="22" height="6"></rect>
      <rect id="Rectangle" fill="#442358" x="15" y="18" width="11" height="2" rx="1"></rect>
      <rect id="Rectangle" fill="#442358" x="0" y="18" width="5" height="2" rx="1"></rect>
      <rect id="Rectangle" fill="#442358" x="20" y="4" width="2" height="7"></rect>
      <path d="M21,0 L21,0 C21.5522847,-1.01453063e-16 22,0.44771525 22,1 L22,3 L20,3 L20,1 C20,0.44771525 20.4477153,1.01453063e-16 21,0 Z" id="Rectangle" fill="#442358"></path>
      <path d="M17,2 L17,2 C17.5522847,2 18,2.44771525 18,3 L18,5 L16,5 L16,3 C16,2.44771525 16.4477153,2 17,2 Z" id="Rectangle" fill="#442358"></path>
      <rect id="Rectangle" fill="#442358" x="16" y="6" width="2" height="5"></rect>
      <circle id="Oval-2" fill="#8247B5" cx="9.99902344" cy="18.9990234" r="2.99902344"></circle>
    </g>
  </g>
</svg>
